# xmcd CD database file
#
# Track frame offsets:
#	150
#	18000
#	48525
#	85950
#	111310
#	123715
#	155125
#	187737
#	205485
#	270150
#
# Disc length: 3778 seconds
#
# Revision: 0
# Processed by: cddbd v1.5.1PL0 Copyright (c) Steve Scherf et al.
# Submitted via: CDex 1.51
#
DISCID=840ec00a
DTITLE=Various Artist - Cafe Jazz 2
DYEAR=2000
DGENRE=Jazz
TTITLE0=Duke Ellington: Anatomy of a Murder
TTITLE1=Dave Brubeck: Poinciana
TTITLE2=Lou Donaldson: Sentimental Journey
TTITLE3=David Sanchez: Tu Y Mi Cancion
TTITLE4=J.J. Johnson: Our Love is Here to Stay
TTITLE5=Ellis Marsalis: The Surrey With The Fringe On Top
TTITLE6=Miles Davis: Freedom Jazz Dance
TTITLE7=Ahmad Jamal: Perfidia
TTITLE8=Duke Ellington: Diminuendo In Blue And Crescendo In Blue
TTITLE9=George Benson: Ain't That Perculiar
EXTD=YEAR: 2000
EXTT0=
EXTT1=
EXTT2=
EXTT3=
EXTT4=
EXTT5=
EXTT6=
EXTT7=
EXTT8=
EXTT9=
PLAYORDER=
